<svg width="64" height="64" viewBox="0 0 64 64" fill="none" xmlns="http://www.w3.org/2000/svg">
<path d="M63.9955 32.0011C63.9955 48.1631 52.0157 61.5246 36.4529 63.6928C34.9978 63.8946 33.509 64 31.9978 64C30.2534 64 28.5404 63.861 26.8722 63.5919C11.6368 61.1389 0 47.9277 0 32.0011C0 14.3278 14.3274 0 32 0C49.6726 0 64 14.3278 64 32.0011H63.9955Z" fill="white"/>
<path d="M36.4529 25.696V32.6671H45.0762L43.7108 42.0575H36.4529V63.6928C34.9978 63.8946 33.509 64 31.9978 64C30.2534 64 28.5404 63.861 26.8722 63.5919V42.0575H18.9193V32.6671H26.8722V24.1376C26.8722 18.846 31.1614 14.5543 36.4552 14.5543V14.5588C36.4709 14.5588 36.4843 14.5543 36.5 14.5543H45.0785V22.6757H39.4731C37.8072 22.6757 36.4552 24.0278 36.4552 25.6937L36.4529 25.696Z" fill="#383D38"/>
</svg>
