<svg width="64" height="64" viewBox="0 0 64 64" fill="none" xmlns="http://www.w3.org/2000/svg">
<path d="M32.0729 0H31.9271C14.2943 0 0 14.2943 0 31.9271V32.0729C0 49.7057 14.2943 64 31.9271 64H32.0729C49.7057 64 64 49.7057 64 32.0729V31.9271C64 14.2943 49.7057 0 32.0729 0Z" fill="white"/>
<path d="M41.9028 13.0206H22.0994C16.6284 13.0206 12.1776 17.4715 12.1776 22.9425V41.0597C12.1776 46.5308 16.6284 50.9816 22.0994 50.9816H41.9028C47.3739 50.9816 51.8247 46.5308 51.8247 41.0597V22.9425C51.8247 17.4715 47.3739 13.0206 41.9028 13.0206ZM15.6777 22.9425C15.6777 19.402 18.5589 16.5207 22.0994 16.5207H41.9028C45.4433 16.5207 48.3246 19.402 48.3246 22.9425V41.0597C48.3246 44.6002 45.4433 47.4815 41.9028 47.4815H22.0994C18.5589 47.4815 15.6777 44.6002 15.6777 41.0597V22.9425Z" fill="#383D38"/>
<path d="M32.0012 41.2279C37.0888 41.2279 41.2302 37.0888 41.2302 31.9989C41.2302 26.909 37.0911 22.7699 32.0012 22.7699C26.9113 22.7699 22.7722 26.909 22.7722 31.9989C22.7722 37.0888 26.9113 41.2279 32.0012 41.2279ZM32.0012 26.2723C35.1605 26.2723 37.7301 28.8419 37.7301 32.0012C37.7301 35.1605 35.1605 37.7301 32.0012 37.7301C28.8419 37.7301 26.2723 35.1605 26.2723 32.0012C26.2723 28.8419 28.8419 26.2723 32.0012 26.2723Z" fill="#383D38"/>
<path d="M42.0845 24.2609C43.4545 24.2609 44.5712 23.1465 44.5712 21.7742C44.5712 20.402 43.4568 19.2876 42.0845 19.2876C40.7123 19.2876 39.5979 20.402 39.5979 21.7742C39.5979 23.1465 40.7123 24.2609 42.0845 24.2609Z" fill="#383D38"/>
</svg>
