<svg width="64" height="64" viewBox="0 0 64 64" fill="none" xmlns="http://www.w3.org/2000/svg">
<path d="M32.0729 0H31.9271C14.2943 0 0 14.2943 0 31.9271V32.0729C0 49.7057 14.2943 64 31.9271 64H32.0729C49.7057 64 64 49.7057 64 32.0729V31.9271C64 14.2943 49.7057 0 32.0729 0Z" fill="white"/>
<path d="M15.2629 21.2721C14.4198 20.4895 14.0005 19.5209 14.0005 18.3684C14.0005 17.2159 14.422 16.2046 15.2629 15.4199C16.1059 14.6373 17.1912 14.2449 18.5208 14.2449C19.8505 14.2449 20.8931 14.6373 21.734 15.4199C22.577 16.2024 22.9963 17.1867 22.9963 18.3684C22.9963 19.5501 22.5748 20.4895 21.734 21.2721C20.8909 22.0546 19.8213 22.447 18.5208 22.447C17.2203 22.447 16.1059 22.0546 15.2629 21.2721ZM22.2878 25.761V49.7529H14.7068V25.761H22.2878Z" fill="#383D38"/>
<path d="M47.524 28.131C49.1766 29.9248 50.0017 32.3868 50.0017 35.5215V49.3291H42.8019V36.4946C42.8019 34.9138 42.3916 33.685 41.5732 32.8106C40.7548 31.9361 39.6516 31.4966 38.2704 31.4966C36.8892 31.4966 35.786 31.9339 34.9676 32.8106C34.1491 33.685 33.7388 34.9138 33.7388 36.4946V49.3291H26.4965V25.6937H33.7388V28.8284C34.472 27.7835 35.4609 26.9584 36.7031 26.3507C37.9453 25.7431 39.3422 25.4404 40.8961 25.4404C43.663 25.4404 45.8738 26.3373 47.524 28.1288V28.131Z" fill="#383D38"/>
</svg>
